PathFileType	4	(X/Y/Z)	/Users/itak/Documents/Research/Walk-IL/dataset/trc/00005_00004.trc
DataRate	CameraRate	NumFrames	NumMarkers	Units	OrigDataRate	OrigDataStartFrame	OrigNumFrames
100.000000	100.000000	4	53	mm	100.000000	515	589
Frame#	Time	RPSI			LPSI			L3			STRN			T10			C7			CLAV			RBAK			LBAK			LSHO			LUPA			LAEL			LAOL			LWTS			LWPS			LFRA			LIFD			LHPS			LHTS			RSHO			RUPA			RAEL			RAOL			RWTS			RWPS			RFRA			RIFD			RHTS			RHPS			RBHD			LFHD			RFHD			LBHD			LHIP			RHIP			RASI			LASI			LKNE			LTHI			LANK			LTIP			LTOE			LMT1			LMT5			LHEE			RKNE			RTHI			RANK			RTIP			RTOE			RMT1			RMT5			RHEE			
		X1	Y1	Z1	X2	Y2	Z2	X3	Y3	Z3	X4	Y4	Z4	X5	Y5	Z5	X6	Y6	Z6	X7	Y7	Z7	X8	Y8	Z8	X9	Y9	Z9	X10	Y10	Z10	X11	Y11	Z11	X12	Y12	Z12	X13	Y13	Z13	X14	Y14	Z14	X15	Y15	Z15	X16	Y16	Z16	X17	Y17	Z17	X18	Y18	Z18	X19	Y19	Z19	X20	Y20	Z20	X21	Y21	Z21	X22	Y22	Z22	X23	Y23	Z23	X24	Y24	Z24	X25	Y25	Z25	X26	Y26	Z26	X27	Y27	Z27	X28	Y28	Z28	X29	Y29	Z29	X30	Y30	Z30	X31	Y31	Z31	X32	Y32	Z32	X33	Y33	Z33	X34	Y34	Z34	X35	Y35	Z35	X36	Y36	Z36	X37	Y37	Z37	X38	Y38	Z38	X39	Y39	Z39	X40	Y40	Z40	X41	Y41	Z41	X42	Y42	Z42	X43	Y43	Z43	X44	Y44	Z44	X45	Y45	Z45	X46	Y46	Z46	X47	Y47	Z47	X48	Y48	Z48	X49	Y49	Z49	X50	Y50	Z50	X51	Y51	Z51	X52	Y52	Z52	X53	Y53	Z53	

516	5.15	1175.064331054688	1050.334716796875	-226.9129638671875	1157.286499023438	1045.724731445312	-390.7930908203125	1158.599731445312	1111.368041992188	-316.66259765625	1368.865600585938	1309.544677734375	-325.2599487304688	1124.091186523438	1252.5537109375	-319.3033142089844	1159.583129882812	1522.623779296875	-332.5697326660156	1322.0830078125	1433.958984375	-328.8558959960938	1114.638549804688	1383.375	-250.4178466796875	1142.698974609375	1480.106689453125	-429.8496398925781	1244.926025390625	1489.289428710938	-504.6228332519531	1217.152709960938	1364.847900390625	-583.1138305664062	1221.302612304688	1147.13134765625	-609.6117553710938	1165.516723632812	1132.978515625	-521.2115478515625	1316.286254882812	899.1448364257812	-555.4060668945312	1239.593994140625	880.240478515625	-597.4736328125	1237.123657226562	1031.6357421875	-615.9299926757812	1347.321655273438	714.667724609375	-534.0508422851562	1275.661743164062	791.7263793945312	-596.1348266601562	1339.556884765625	804.3677368164062	-568.0880126953125	1242.03466796875	1510.385986328125	-158.6491088867188	1231.896240234375	1439.259033203125	-85.20343780517578	1199.03076171875	1170.157836914062	-62.50426483154297	1197.168090820312	1141.046142578125	-158.4428253173828	1316.904296875	906.105712890625	-87.35110473632812	1250.648193359375	896.2313232421875	-23.87381935119629	1210.884643554688	1095.920532226562	-46.28046417236328	1323.07568359375	718.9672241210938	-97.83609008789062	1342.052612304688	792.8399047851562	-68.48676300048828	1285.643432617188	794.2006225585938	-20.55186080932617	1212.126831054688	1705.934326171875	-398.3289489746094	1378.292846679688	1723.813232421875	-256.8837585449219	1388.13427734375	1727.059326171875	-354.847412109375	1204.954467773438	1696.73046875	-254.7344055175781	1246.1376953125	949.5379638671875	-507.7493591308594	1299.307373046875	946.298828125	-137.7298278808594	1393.767944335938	981.048583984375	-218.8035888671875	1367.148193359375	997.7093505859375	-453.1446533203125	1299.3486328125	503.44580078125	-463.1339416503906	1272.463012695312	641.126953125	-497.2234802246094	1190.341674804688	26.52819061279297	-458.76953125	1213.641235351562	273.6567993164062	-476.6736145019531	1411.5224609375	22.4758415222168	-393.8961486816406	1352.126586914062	28.43011283874512	-376.962158203125	1316.29833984375	22.57623672485352	-478.0675354003906	1120.938842773438	34.49164199829102	-405.2537536621094	1293.643432617188	510.8738708496094	-192.3809661865234	1320.902465820312	778.745849609375	-142.8587799072266	1159.95361328125	32.71538543701172	-206.605712890625	1264.293212890625	388.1762084960938	-192.9356231689453	1383.142822265625	27.72164535522461	-277.1972961425781	1317.17236328125	34.87951278686523	-297.4376220703125	1309.877197265625	27.18735694885254	-202.3733825683594	1097.969970703125	37.30906677246094	-242.7958221435547	
517	5.16	1175.693725585938	1050.349975585938	-227.6012420654297	1157.919067382812	1045.637329101562	-391.48046875	1159.411010742188	1111.25927734375	-317.3646240234375	1369.339477539062	1309.552734375	-326.1769714355469	1124.631103515625	1252.473754882812	-320.149658203125	1159.977783203125	1522.55419921875	-333.5473937988281	1322.514038085938	1433.885986328125	-329.7740173339844	1115.050170898438	1383.31591796875	-251.3565063476562	1143.107055664062	1479.96923828125	-430.78857421875	1245.309326171875	1489.168701171875	-505.5737915039062	1217.493896484375	1364.746704101562	-584.0869750976562	1221.484985351562	1146.995849609375	-610.6050415039062	1165.514282226562	1132.858642578125	-522.1820068359375	1315.68798828125	898.5824584960938	-556.7574462890625	1238.880004882812	880.0499267578125	-598.7703247070312	1236.978637695312	1031.474487304688	-617.046630859375	1346.028686523438	713.9525756835938	-535.7071533203125	1274.59619140625	791.426025390625	-597.5985717773438	1338.4658203125	803.5858764648438	-569.5026245117188	1242.444091796875	1510.404418945312	-159.6181945800781	1232.316528320312	1439.318359375	-86.13761138916016	1199.405395507812	1170.185180664062	-63.59185791015625	1197.666870117188	1141.109130859375	-159.5213165283203	1317.036499023438	905.9351196289062	-88.42959594726562	1250.740478515625	896.1401977539062	-24.97833824157715	1211.189086914062	1095.934692382812	-47.39804458618164	1322.900512695312	718.7948608398438	-98.98708343505859	1341.965454101562	792.7176513671875	-69.67140960693359	1285.565551757812	794.1752319335938	-21.72015380859375	1212.223022460938	1705.699584960938	-399.4960021972656	1378.041870117188	1724.048828125	-257.6927795410156	1388.103759765625	1727.331420898438	-355.6897583007812	1204.846801757812	1696.517333984375	-255.9083251953125	1246.677612304688	949.435546875	-508.4085693359375	1299.847290039062	946.2972412109375	-138.4068603515625	1394.34375	981.0188598632812	-219.4285888671875	1367.761596679688	997.6710205078125	-453.8651123046875	1299.218627929688	503.3475952148438	-463.4008178710938	1271.822631835938	641.1130981445312	-497.5933837890625	1190.330932617188	26.48126029968262	-458.7916870117188	1213.550048828125	273.5434875488281	-476.8223876953125	1411.516845703125	22.47812271118164	-393.9045104980469	1352.101806640625	28.48636436462402	-376.9965209960938	1316.28759765625	22.56769371032715	-478.0849304199219	1120.937133789062	34.45770263671875	-405.2572326660156	1293.527709960938	510.9703979492188	-192.6706848144531	1321.275390625	778.8125610351562	-143.3585357666016	1159.93603515625	32.70489883422852	-206.6009826660156	1264.09521484375	388.2864685058594	-193.2389526367188	1383.13330078125	27.73644256591797	-277.2061767578125	1317.154418945312	34.88640594482422	-297.447509765625	1309.883666992188	27.20380401611328	-202.3892211914062	1097.9375	37.26196670532227	-242.7876434326172	
518	5.17	1176.282836914062	1050.377075195312	-228.2697143554688	1158.470336914062	1045.554931640625	-392.1558227539062	1160.188354492188	1111.161865234375	-318.046630859375	1369.7841796875	1309.56494140625	-327.0740661621094	1125.095092773438	1252.39794921875	-320.9724426269531	1160.350830078125	1522.489135742188	-334.5020446777344	1322.917236328125	1433.816284179688	-330.6741943359375	1115.397338867188	1383.252807617188	-252.277099609375	1143.479614257812	1479.839721679688	-431.7074584960938	1245.6484375	1489.037353515625	-506.4959106445312	1217.795288085938	1364.6298828125	-585.0283813476562	1221.650268554688	1146.863403320312	-611.5787963867188	1165.51123046875	1132.7255859375	-523.135986328125	1315.0537109375	897.986083984375	-558.05126953125	1238.163818359375	879.8629760742188	-600.0494384765625	1236.817138671875	1031.308837890625	-618.138427734375	1344.714599609375	713.2308349609375	-537.3110961914062	1273.527587890625	791.1345825195312	-599.0340576171875	1337.393920898438	802.84521484375	-570.8931884765625	1242.8330078125	1510.426635742188	-160.5716705322266	1232.720458984375	1439.394287109375	-87.05125427246094	1199.776733398438	1170.2294921875	-64.62546539306641	1198.16259765625	1141.192016601562	-160.5490875244141	1317.268676757812	905.8352661132812	-89.50020599365234	1250.954467773438	896.0737915039062	-26.06436538696289	1211.507690429688	1095.9501953125	-48.45926284790039	1322.979248046875	718.7754516601562	-100.1540756225586	1342.100708007812	792.7730102539062	-70.90556335449219	1285.676513671875	794.1687622070312	-22.8843936920166	1212.297485351562	1705.464721679688	-400.6369018554688	1377.791015625	1724.284912109375	-258.5069580078125	1388.043334960938	1727.599365234375	-356.5216064453125	1204.7421875	1696.313598632812	-257.0586547851562	1247.179565429688	949.343017578125	-509.0516052246094	1300.303588867188	946.2965087890625	-139.0569152832031	1394.863037109375	980.975341796875	-220.0082244873047	1368.344116210938	997.6931762695312	-454.5993957519531	1299.136840820312	503.2739562988281	-463.6263732910156	1271.359252929688	641.069091796875	-497.8961486816406	1190.313720703125	26.43341445922852	-458.8116760253906	1213.490356445312	273.4273681640625	-476.9862670898438	1411.510498046875	22.48418235778809	-393.9126586914062	1352.076293945312	28.5463981628418	-377.0306701660156	1316.279907226562	22.55961227416992	-478.0985412597656	1120.93994140625	34.4223518371582	-405.2599792480469	1293.33056640625	511.0719909667969	-192.9413452148438	1321.601196289062	778.8525390625	-143.8713226318359	1159.919799804688	32.68656921386719	-206.5928649902344	1263.880493164062	388.4254455566406	-193.4785614013672	1383.11865234375	27.75261116027832	-277.2138061523438	1317.13134765625	34.89981460571289	-297.4508361816406	1309.8876953125	27.22073554992676	-202.392822265625	1097.896240234375	37.20660018920898	-242.7755889892578	
519	5.18	1176.810302734375	1050.41064453125	-228.9132080078125	1158.944213867188	1045.481567382812	-392.8172607421875	1160.899658203125	1111.074584960938	-318.7059326171875	1370.19970703125	1309.57421875	-327.9500732421875	1125.48486328125	1252.330444335938	-321.7760925292969	1160.703857421875	1522.427124023438	-335.4321899414062	1323.294067382812	1433.748413085938	-331.5588989257812	1115.689208984375	1383.187622070312	-253.1800384521484	1143.818237304688	1479.717041015625	-432.6068420410156	1245.947387695312	1488.894165039062	-507.3926086425781	1218.0576171875	1364.494506835938	-585.937255859375	1221.802612304688	1146.734130859375	-612.5331420898438	1165.555053710938	1132.57958984375	-524.0673828125	1314.391235351562	897.3622436523438	-559.28955078125	1237.45166015625	879.6785278320312	-601.3102416992188	1236.645629882812	1031.139892578125	-619.2056884765625	1343.3916015625	712.5128784179688	-538.8564453125	1272.46435546875	790.8460693359375	-600.4391479492188	1336.359497070312	802.15966796875	-572.2728271484375	1243.205200195312	1510.4501953125	-161.5073699951172	1233.10888671875	1439.47705078125	-87.94896697998047	1200.14453125	1170.2841796875	-65.60159301757812	1198.609252929688	1141.286376953125	-161.5256652832031	1317.596923828125	905.8082275390625	-90.56682586669922	1251.29345703125	896.0332641601562	-27.12787246704102	1211.843994140625	1095.964477539062	-49.46099090576172	1323.304809570312	718.8949584960938	-101.3288650512695	1342.460815429688	792.9921875	-72.18553161621094	1285.97119140625	794.1734008789062	-24.03782272338867	1212.35205078125	1705.228149414062	-401.75048828125	1377.54443359375	1724.5244140625	-259.3307189941406	1387.954467773438	1727.864013671875	-357.3417663574219	1204.62890625	1696.115112304688	-258.1844177246094	1247.645751953125	949.26513671875	-509.6787109375	1300.677001953125	946.2901000976562	-139.6789398193359	1395.321899414062	980.9168701171875	-220.5529937744141	1368.883666992188	997.7507934570312	-455.3361511230469	1299.104736328125	503.2216796875	-463.8265686035156	1271.050903320312	641.0138549804688	-498.1329040527344	1190.292602539062	26.3856201171875	-458.8316040039062	1213.458984375	273.3115539550781	-477.1660766601562	1411.503662109375	22.49362754821777	-393.9202270507812	1352.05029296875	28.60981559753418	-377.064208984375	1316.276611328125	22.55170631408691	-478.1075134277344	1120.945434570312	34.38708114624023	-405.2633972167969	1293.074462890625	511.1596069335938	-193.2127380371094	1321.887817382812	778.8434448242188	-144.3998718261719	1159.905517578125	32.65908432006836	-206.5818328857422	1263.667358398438	388.5774536132812	-193.6539459228516	1383.099243164062	27.76991271972656	-277.2209167480469	1317.102905273438	34.91778182983398	-297.4495544433594	1309.88916015625	27.23821067810059	-202.3875427246094	1097.850219726562	37.1396598815918	-242.763427734375	
